<svg xmlns="http://www.w3.org/2000/svg" viewBox="0 0 214 48" id="normalSVGIcon" class="menu-logo">
  <g fill="#757575">
    <path d="M12.3 20.5c0-5.4 4.6-9.8 10-9.8 3 0 5.1 1.2 6.7 2.7l-1.9 1.9c-1.2-1.1-2.7-1.9-4.8-1.9-4 0-7.1 3.2-7.1 7.2s3.1 7.2 7.1 7.2c2.6 0 4-1 5-2 .8-.8 1.3-1.9 1.5-3.4h-6.4v-2.7h9c.1.5.1 1.1.1 1.7 0 2-.6 4.5-2.3 6.3-1.7 1.8-3.9 2.8-6.9 2.8-5.5-.1-10-4.5-10-10zM38.8 17.7c-3.5 0-6.4 2.7-6.4 6.3 0 3.6 2.9 6.3 6.4 6.3 3.5 0 6.4-2.7 6.4-6.3-.1-3.6-2.9-6.3-6.4-6.3zm0 10.2c-1.9 0-3.6-1.6-3.6-3.8 0-2.3 1.7-3.8 3.6-3.8 1.9 0 3.6 1.6 3.6 3.8-.1 2.2-1.7 3.8-3.6 3.8zM52.6 17.7c-3.5 0-6.4 2.7-6.4 6.3 0 3.6 2.9 6.3 6.4 6.3 3.5 0 6.4-2.7 6.4-6.3 0-3.6-2.9-6.3-6.4-6.3zm0 10.2c-1.9 0-3.6-1.6-3.6-3.8 0-2.3 1.7-3.8 3.6-3.8s3.6 1.6 3.6 3.8c0 2.2-1.7 3.8-3.6 3.8zM69.7 18.1v1h-.1c-.6-.7-1.8-1.4-3.3-1.4-3.2 0-6.1 2.8-6.1 6.4 0 3.6 2.9 6.3 6.1 6.3 1.5 0 2.7-.7 3.3-1.4h.1v.9c0 2.4-1.3 3.7-3.4 3.7-1.7 0-2.8-1.2-3.2-2.3l-2.4 1c.7 1.7 2.5 3.7 5.6 3.7 3.3 0 6-1.9 6-6.6V18.1h-2.6zm-3.2 9.8c-1.9 0-3.5-1.6-3.5-3.8 0-2.2 1.6-3.9 3.5-3.9s3.4 1.6 3.4 3.9c-.1 2.2-1.5 3.8-3.4 3.8zM74.2 11.4H77V30h-2.8zM84.6 27.9c-1.4 0-2.4-.6-3.1-1.9l8.5-3.5-.3-.7c-.5-1.4-2.1-4-5.4-4-3.3 0-6 2.6-6 6.3 0 3.6 2.7 6.3 6.3 6.3 2.9 0 4.6-1.8 5.3-2.8l-2.2-1.4c-.7 1-1.7 1.7-3.1 1.7zm-.2-7.7c1.1 0 2 .6 2.4 1.3l-5.7 2.4c-.1-2.5 1.9-3.7 3.3-3.7z"/></g><path fill="none" d="M12.1 10.7h78v25.5h-78z"/><path fill="none" d="M12.1 10.7h189.8v25.5H12.1z"/><g fill="#EE6B00"><path d="M143.7 12.8h2.2l6 10.5h.1l6-10.5h2.2V30H158V19.8l.1-2.9h-.1l-5.4 9.4h-1.3l-5.4-9.4h-.1l.1 2.9V30h-2.2V12.8zM171.3 30v-1.6h-.1c-.6 1.1-2.1 2-3.7 2-3 0-4.5-2-4.5-4.9v-7.2h2.2v6.8c0 2.4 1.2 3.3 2.9 3.3 1.9 0 3.1-1.8 3.1-3.6v-6.5h2.2V30h-2.1zM174.9 27l2-.8c.6 1.5 1.8 2.2 3.2 2.2 1.4 0 2.4-.7 2.4-1.7 0-.6-.4-1.2-1.6-1.6l-2.4-.6c-1.1-.3-3.1-1.2-3.1-3.3 0-2.1 2.2-3.5 4.7-3.5 2 0 3.8.9 4.5 2.7l-1.9.8c-.5-1.1-1.5-1.6-2.7-1.6-1.2 0-2.3.6-2.3 1.5 0 .7.6 1.2 1.6 1.4l2.3.6c2.3.6 3.2 2 3.2 3.4 0 2.1-1.9 3.7-4.6 3.7-3 .2-4.6-1.5-5.3-3.2zM186 14.2c0-.9.7-1.6 1.6-1.6.9 0 1.6.7 1.6 1.6 0 .9-.7 1.6-1.6 1.6-.9-.1-1.6-.8-1.6-1.6zm.4 15.8V18.2h2.2V30h-2.2zM190.5 24.1c0-3.6 2.5-6.3 6-6.3 2.8 0 4.4 1.7 5.2 3.4l-2 .8c-.6-1.4-1.7-2.2-3.3-2.2-1.9 0-3.7 1.7-3.7 4.2s1.8 4.2 3.7 4.2c1.6 0 2.8-.8 3.4-2.2l2 .8c-.7 1.7-2.4 3.4-5.2 3.4-3.6.2-6.1-2.5-6.1-6.1z"/></g><g fill="#757575"><path d="M102.3 11.4h-6.7V30h2.8v-7.1h3.9c3.1 0 6.1-2.2 6.1-5.8s-3.1-5.7-6.1-5.7zm0 9h-4V14h4c2.1 0 3.3 1.7 3.3 3.2 0 1.4-1.2 3.2-3.3 3.2zM112.7 30V11.4h-2.8V30h2.8zM125.2 30v-7.1c0-3.3-2.5-5.2-5.7-5.2-2 0-4.1.9-5 2.9l2.5 1c.5-1 1.5-1.4 2.5-1.4 1.4 0 2.9.9 2.9 2.4v.2c-.5-.3-1.6-.7-2.9-.7-2.7 0-5.4 1.5-5.4 4.2 0 2.5 2.2 4.1 4.6 4.1 1.9 0 2.9-.8 3.5-1.8h.1V30h2.9zm-6-2.1c-.9 0-2.2-.5-2.2-1.6 0-1.4 1.6-2 2.9-2 1.2 0 1.8.3 2.5.6-.1 1.8-1.6 3-3.2 3zM134.9 18.1l-3.2 8.1h-.1l-3.3-8.1h-3l5 11.3-2.8 6.3h2.9l7.6-17.6h-3.1z"/>
  </g>
  <path fill="none" d="M.1 0h213.8v48H.1z"/>
</svg>
